<svg xmlns="http://www.w3.org/2000/svg" viewBox="0 0 512 512" width="512" height="512" role="img" aria-label="Maxematics">
  <title>Maxematics favicon (violet)</title>
  <rect width="512" height="512" rx="113" fill="#7C3AED"/>
  <g fill="#FFFFFF"><path d="M 326.760 137.972 C 329.760 134.972 334.622 134.972 337.622 137.972 L 374.028 174.378 C 377.028 177.378 377.028 182.240 374.028 185.240 L 185.240 374.028 C 182.240 377.028 177.378 377.028 174.378 374.028 L 137.972 337.622 C 134.972 334.622 134.972 329.760 137.972 326.760 Z"/><path d="M 137.972 185.240 C 134.972 182.240 134.972 177.378 137.972 174.378 L 174.378 137.972 C 177.378 134.972 182.240 134.972 185.240 137.972 L 374.028 326.760 C 377.028 329.760 377.028 334.622 374.028 337.622 L 337.622 374.028 C 334.622 377.028 329.760 377.028 326.760 374.028 Z"/></g>
</svg>
